<svg width="900" height="50" xmlns="http://www.w3.org/2000/svg"><path fill="#87BB67" d="M0 0h900v50H0z"/><path d="m0 12 5.5 4.8C11 21.7 22 31.3 33.2 32.3c11.1 1 22.5-6.6 33.6-12C78 15 89 12 100 11.8c11-.1 22 2.5 33.2 2.9 11.1.3 22.5-1.7 33.6-.9 11.2.9 22.2 4.5 33.2 6.7 11 2.2 22 2.8 33.2 2.7 11.1-.2 22.5-1.2 33.6-2C278 20.3 289 19.7 300 20c11 .3 22 1.7 33.2 4 11.1 2.3 22.5 5.7 33.6 8.3C378 35 389 37 400 37.7c11 .6 22 0 33.2-2.7 11.1-2.7 22.5-7.3 33.6-7.2C478 28 489 33 500 33.3c11 .4 22-4 33.2-3.6 11.1.3 22.5 5.3 33.6 6.6 11.2 1.4 22.2-1 33.2-5.6 11-4.7 22-11.7 33.2-14.2 11.1-2.5 22.5-.5 33.6 3.7C678 24.3 689 30.7 700 30c11-.7 22-8.3 33.2-8.2 11.1.2 22.5 8.2 33.6 8.4 11.2.1 22.2-7.5 33.2-11.5 11-4 22-4.4 33.2-3.9 11.1.5 22.5 1.9 33.6 2.7 11.2.8 22.2 1.2 27.7 1.3l5.5.2v32H0Z" fill="#B9D99A"/></svg>