<svg width="900" height="150" xmlns="http://www.w3.org/2000/svg"><path d="m0 40 13.7-1c13.6-1 41-3 68.3-.5 27.3 2.5 54.7 9.5 81.8 10.3 27.2.9 54.2-4.5 81.4-5.6 27.1-1.2 54.5 1.8 81.8 2.3 27.3.5 54.7-1.5 82-2 27.3-.5 54.7.5 82 .5 27.3 0 54.7-1 82-2 27.3-1 54.7-2 81.8-3.8 27.2-1.9 54.2-4.5 81.4-5 27.1-.5 54.5 1.1 81.8.1 27.3-1 54.7-4.6 68.3-6.5L900 25V0H0Z" fill="#b9d99a"/><path d="m0 60 13.7 3.2c13.6 3.1 41 9.5 68.3 12.5 27.3 3 54.7 2.6 81.8 2.1 27.2-.5 54.2-1.1 81.4-2.1 27.1-1 54.5-2.4 81.8-1.4 27.3 1 54.7 4.4 82 3 27.3-1.3 54.7-7.3 82-6.8 27.3.5 54.7 7.5 82 7.2 27.3-.4 54.7-8 81.8-9.7 27.2-1.7 54.2 2.7 81.4 3 27.1.3 54.5-3.3 81.8-4.8 27.3-1.5 54.7-.9 68.3-.5l13.7.3V23l-13.7 1.8c-13.6 1.9-41 5.5-68.3 6.5-27.3 1-54.7-.6-81.8-.1-27.2.5-54.2 3.1-81.4 5C627.7 38 600.3 39 573 40c-27.3 1-54.7 2-82 2-27.3 0-54.7-1-82-.5-27.3.5-54.7 2.5-82 2-27.3-.5-54.7-3.5-81.8-2.3-27.2 1.1-54.2 6.5-81.4 5.6C136.7 46 109.3 39 82 36.5 54.7 34 27.3 36 13.7 37L0 38Z" fill="#b2d592"/><path d="m0 70 13.7 3.3c13.6 3.4 41 10 68.3 13 27.3 3 54.7 2.4 81.8 2.4 27.2 0 54.2.6 81.4.1 27.1-.5 54.5-2.1 81.8-2.1 27.3 0 54.7 1.6 82 .1 27.3-1.5 54.7-6.1 82-4.5 27.3 1.7 54.7 9.7 82 10 27.3.4 54.7-7 81.8-9.5 27.2-2.5 54.2-.1 81.4-.6 27.1-.5 54.5-3.9 81.8-4.9 27.3-1 54.7.4 68.3 1l13.7.7V64l-13.7-.3c-13.6-.4-41-1-68.3.5-27.3 1.5-54.7 5.1-81.8 4.8-27.2-.3-54.2-4.7-81.4-3-27.1 1.7-54.5 9.3-81.8 9.7-27.3.3-54.7-6.7-82-7.2-27.3-.5-54.7 5.5-82 6.8-27.3 1.4-54.7-2-82-3-27.3-1-54.7.4-81.8 1.4-27.2 1-54.2 1.6-81.4 2.1-27.1.5-54.5.9-81.8-2.1-27.3-3-54.7-9.4-68.3-12.5L0 58Z" fill="#abd08b"/><path d="m0 84 13.7 3c13.6 3 41 9 68.3 12 27.3 3 54.7 3 81.8 2.7 27.2-.4 54.2-1 81.4-2.9 27.1-1.8 54.5-4.8 81.8-5.5 27.3-.6 54.7 1 82 0 27.3-1 54.7-4.6 82-2.5 27.3 2.2 54.7 10.2 82 10.7 27.3.5 54.7-6.5 81.8-8.5 27.2-2 54.2 1 81.4.7 27.1-.4 54.5-4 81.8-5.2 27.3-1.2 54.7.2 68.3.8l13.7.7V77l-13.7-.7c-13.6-.6-41-2-68.3-1-27.3 1-54.7 4.4-81.8 4.9-27.2.5-54.2-1.9-81.4.6-27.1 2.5-54.5 9.9-81.8 9.5-27.3-.3-54.7-8.3-82-10-27.3-1.6-54.7 3-82 4.5-27.3 1.5-54.7-.1-82-.1-27.3 0-54.7 1.6-81.8 2.1-27.2.5-54.2-.1-81.4-.1-27.1 0-54.5.6-81.8-2.4-27.3-3-54.7-9.6-68.3-13L0 68Z" fill="#a4cc84"/><path d="m0 96 13.7 2.5c13.6 2.5 41 7.5 68.3 10 27.3 2.5 54.7 2.5 81.8 2.7 27.2.1 54.2.5 81.4-.9 27.1-1.3 54.5-4.3 81.8-5 27.3-.6 54.7 1 82-.5 27.3-1.5 54.7-6.1 82-4.6 27.3 1.5 54.7 9.1 82 10 27.3.8 54.7-5.2 81.8-6.7 27.2-1.5 54.2 1.5 81.4 1.2 27.1-.4 54.5-4 81.8-5.9 27.3-1.8 54.7-1.8 68.3-1.8H900v-9l-13.7-.7c-13.6-.6-41-2-68.3-.8-27.3 1.2-54.7 4.8-81.8 5.2C709 92 682 89 654.8 91c-27.1 2-54.5 9-81.8 8.5-27.3-.5-54.7-8.5-82-10.7-27.3-2.1-54.7 1.5-82 2.5-27.3 1-54.7-.6-82 0-27.3.7-54.7 3.7-81.8 5.5-27.2 1.9-54.2 2.5-81.4 2.9-27.1.3-54.5.3-81.8-2.7-27.3-3-54.7-9-68.3-12L0 82Z" fill="#9cc87c"/><path d="m0 120 13.7 1.5c13.6 1.5 41 4.5 68.3 5.2 27.3.6 54.7-1 81.8-1 27.2 0 54.2 1.6 81.4 1.5 27.1-.2 54.5-2.2 81.8-3.5 27.3-1.4 54.7-2 82-3.5 27.3-1.5 54.7-3.9 82-2 27.3 1.8 54.7 7.8 82 9 27.3 1.1 54.7-2.5 81.8-4 27.2-1.5 54.2-.9 81.4-1.9 27.1-1 54.5-3.6 81.8-2.6 27.3 1 54.7 5.6 68.3 8L900 129V95h-13.7c-13.6 0-41 0-68.3 1.8-27.3 1.9-54.7 5.5-81.8 5.9-27.2.3-54.2-2.7-81.4-1.2-27.1 1.5-54.5 7.5-81.8 6.7-27.3-.9-54.7-8.5-82-10-27.3-1.5-54.7 3.1-82 4.6-27.3 1.5-54.7-.1-82 .5-27.3.7-54.7 3.7-81.8 5-27.2 1.4-54.2 1-81.4.9-27.1-.2-54.5-.2-81.8-2.7-27.3-2.5-54.7-7.5-68.3-10L0 94Z" fill="#95c475"/><path d="m0 135 13.7.2c13.6.1 41 .5 68.3 1 27.3.5 54.7 1.1 81.8 2.1 27.2 1 54.2 2.4 81.4 2 27.1-.3 54.5-2.3 81.8-3.3 27.3-1 54.7-1 82-2 27.3-1 54.7-3 82-2.2 27.3.9 54.7 4.5 82 5 27.3.5 54.7-2.1 81.8-3.1 27.2-1 54.2-.4 81.4-1 27.1-.7 54.5-2.7 81.8-1.5 27.3 1.1 54.7 5.5 68.3 7.6L900 142v-15l-13.7-2.3c-13.6-2.4-41-7-68.3-8-27.3-1-54.7 1.6-81.8 2.6-27.2 1-54.2.4-81.4 1.9-27.1 1.5-54.5 5.1-81.8 4-27.3-1.2-54.7-7.2-82-9-27.3-1.9-54.7.5-82 2-27.3 1.5-54.7 2.1-82 3.5-27.3 1.3-54.7 3.3-81.8 3.5-27.2.1-54.2-1.5-81.4-1.5-27.1 0-54.5 1.6-81.8 1-27.3-.7-54.7-3.7-68.3-5.2L0 118Z" fill="#8ebf6e"/><path d="M0 151H900v-11l-13.7-2.2c-13.6-2.1-41-6.5-68.3-7.6-27.3-1.2-54.7.8-81.8 1.5-27.2.6-54.2 0-81.4 1-27.1 1-54.5 3.6-81.8 3.1-27.3-.5-54.7-4.1-82-5-27.3-.8-54.7 1.2-82 2.2-27.3 1-54.7 1-82 2-27.3 1-54.7 3-81.8 3.3-27.2.4-54.2-1-81.4-2-27.1-1-54.5-1.6-81.8-2.1-27.3-.5-54.7-.9-68.3-1L0 133Z" fill="#87bb67"/></svg>